<?xml version="1.0" encoding="utf-8"?>
<!-- Generator: Adobe Illustrator 24.1.0, SVG Export Plug-In . SVG Version: 6.00 Build 0)  -->
<svg version="1.1" id="Layer_1" xmlns="http://www.w3.org/2000/svg" xmlns:xlink="http://www.w3.org/1999/xlink" x="0px" y="0px"
	 viewBox="0 0 745.97 126.45" style="enable-background:new 0 0 745.97 126.45;" xml:space="preserve">
<style type="text/css">
	.st0{fill:#03953F;}
	.st1{fill:#0061A5;}
	.st2{fill:none;}
</style>
<g>
	<path class="st0" d="M725.96,123.42h3.02v-9.97c0-0.51,0.07-1.03,0.21-1.4c0.55-1.68,2.09-3.08,4.04-3.08
		c2.84,0,3.84,2.23,3.84,4.9v9.56h3.01v-9.87c0-5.69-3.56-7.06-5.86-7.06c-2.74,0-4.66,1.54-5.48,3.08h-0.07l-0.17-2.74h-2.67
		c0.1,1.37,0.14,2.74,0.14,4.49V123.42z M714.1,108.75c3.56,0,4.97,3.53,4.97,6.34c0,3.73-2.16,6.44-5.04,6.44
		c-2.95,0-5-2.74-5-6.37C709.03,112.04,710.57,108.75,714.1,108.75 M714.17,106.49c-4.56,0-8.22,3.25-8.22,8.77
		c0,5.24,3.49,8.53,7.95,8.53c3.97,0,8.26-2.67,8.26-8.8C722.15,109.95,718.93,106.49,714.17,106.49 M700.64,100.29
		c-1.13,0-1.88,0.86-1.88,1.88c0,1.03,0.72,1.85,1.82,1.85c1.2,0,1.92-0.82,1.92-1.85C702.49,101.11,701.73,100.29,700.64,100.29
		 M702.14,106.83h-3.02v16.58h3.02V106.83z M680.11,123.42h3.02v-9.97c0-0.51,0.07-1.03,0.21-1.4c0.55-1.68,2.09-3.08,4.04-3.08
		c2.84,0,3.84,2.23,3.84,4.9v9.56h3.02v-9.87c0-5.69-3.56-7.06-5.86-7.06c-2.74,0-4.66,1.54-5.48,3.08h-0.07l-0.17-2.74h-2.67
		c0.1,1.37,0.14,2.74,0.14,4.49V123.42z M675.11,106.83h-3.01v10.14c0,0.58-0.1,1.13-0.28,1.54c-0.55,1.37-1.95,2.78-3.97,2.78
		c-2.71,0-3.7-2.16-3.7-5.31v-9.15h-3.01v9.7c0,5.79,3.12,7.26,5.72,7.26c2.95,0,4.73-1.75,5.48-3.08h0.07l0.17,2.71h2.67
		c-0.1-1.3-0.14-2.81-0.14-4.56V106.83z M643.31,103.75v3.08h-2.57v2.29h2.57v9.05c0,1.95,0.34,3.43,1.16,4.35
		c0.72,0.79,1.85,1.27,3.26,1.27c1.16,0,2.09-0.2,2.67-0.41l-0.14-2.29c-0.45,0.13-0.92,0.2-1.75,0.2c-1.68,0-2.26-1.16-2.26-3.22
		v-8.94h4.32v-2.29h-4.32v-3.97L643.31,103.75z M636.12,100.29c-1.13,0-1.88,0.86-1.88,1.88c0,1.03,0.72,1.85,1.82,1.85
		c1.2,0,1.92-0.82,1.92-1.85C637.97,101.11,637.21,100.29,636.12,100.29 M637.62,106.83h-3.01v16.58h3.01V106.83z M626.59,116.46
		c0,0.48-0.03,0.89-0.14,1.3c-0.55,2.23-2.4,3.6-4.42,3.6c-3.22,0-4.9-2.78-4.9-6.13c0-3.63,1.85-6.37,4.97-6.37
		c2.26,0,3.91,1.58,4.35,3.46c0.1,0.38,0.14,0.89,0.14,1.27V116.46z M626.59,99.09v9.9h-0.07c-0.75-1.3-2.43-2.5-5-2.5
		c-4.01,0-7.47,3.36-7.43,8.88c0,5.04,3.12,8.43,7.13,8.43c2.71,0,4.69-1.4,5.59-3.25h0.1l0.14,2.88h2.67
		c-0.07-1.13-0.14-2.81-0.14-4.28V99.09H626.59z M599.83,113.51c0.24-2.09,1.54-4.87,4.63-4.87c3.39,0,4.21,2.98,4.18,4.87H599.83z
		 M611.45,115.67c0.07-0.34,0.1-0.79,0.1-1.41c0-3.05-1.41-7.78-6.85-7.78c-4.83,0-7.78,3.91-7.78,8.91s3.05,8.39,8.15,8.39
		c2.64,0,4.49-0.58,5.55-1.06l-0.55-2.16c-1.1,0.48-2.43,0.86-4.59,0.86c-3.05,0-5.62-1.68-5.69-5.75H611.45z M587.26,123.42h3.02
		v-8.84c0-0.48,0.04-0.99,0.1-1.41c0.41-2.26,1.92-3.84,4.04-3.84c0.41,0,0.72,0,1.03,0.07v-2.84c-0.27-0.03-0.51-0.07-0.82-0.07
		c-2.02,0-3.87,1.4-4.63,3.63h-0.1l-0.14-3.29h-2.64c0.1,1.54,0.14,3.22,0.14,5.17V123.42z M583.21,120.57
		c-0.86,0.38-1.99,0.79-3.7,0.79c-3.29,0-5.76-2.36-5.76-6.2c0-3.43,2.06-6.27,5.86-6.27c1.64,0,2.78,0.41,3.49,0.79l0.68-2.3
		c-0.82-0.44-2.4-0.89-4.18-0.89c-5.42,0-8.91,3.73-8.91,8.84c0,5.07,3.25,8.46,8.26,8.46c2.23,0,3.97-0.58,4.76-0.96L583.21,120.57
		z"/>
	<path class="st1" d="M561.18,100.05c-0.38,2.47-1.3,6-2.02,8.02l1.92-0.21c0.92-1.58,2.4-5.28,3.19-8.15L561.18,100.05z
		 M546.38,122.63c1.16,0.69,2.84,1.17,4.66,1.17c3.87,0,6.17-2.06,6.17-5c0-2.47-1.51-3.91-4.35-4.97
		c-2.16-0.86-3.12-1.47-3.12-2.84c0-1.23,0.96-2.26,2.74-2.26c1.54,0,2.74,0.58,3.39,0.99l0.72-2.19c-0.89-0.58-2.36-1.03-4.04-1.03
		c-3.53,0-5.72,2.19-5.72,4.87c0,1.99,1.41,3.6,4.42,4.69c2.19,0.82,3.05,1.58,3.05,3.02c0,1.41-1.03,2.47-3.19,2.47
		c-1.51,0-3.08-0.62-4.01-1.17L546.38,122.63z M528.49,123.42h3.02v-9.97c0-0.51,0.07-1.03,0.21-1.4c0.55-1.68,2.09-3.08,4.04-3.08
		c2.84,0,3.84,2.23,3.84,4.9v9.56h3.02v-9.87c0-5.69-3.56-7.06-5.86-7.06c-2.74,0-4.66,1.54-5.48,3.08h-0.07l-0.17-2.74h-2.67
		c0.1,1.37,0.14,2.74,0.14,4.49V123.42z M516.64,108.75c3.56,0,4.97,3.53,4.97,6.34c0,3.73-2.16,6.44-5.04,6.44
		c-2.95,0-5-2.74-5-6.37C511.57,112.04,513.11,108.75,516.64,108.75 M516.71,106.49c-4.56,0-8.22,3.25-8.22,8.77
		c0,5.24,3.5,8.53,7.95,8.53c3.97,0,8.26-2.67,8.26-8.81C524.69,109.95,521.47,106.49,516.71,106.49 M503.17,100.29
		c-1.13,0-1.88,0.86-1.88,1.88c0,1.03,0.72,1.85,1.82,1.85c1.2,0,1.92-0.82,1.92-1.85C505.02,101.11,504.27,100.29,503.17,100.29
		 M504.68,106.83h-3.02v16.58h3.02V106.83z M482.65,123.42h3.02v-9.97c0-0.51,0.07-1.03,0.21-1.4c0.55-1.68,2.09-3.08,4.04-3.08
		c2.84,0,3.84,2.23,3.84,4.9v9.56h3.02v-9.87c0-5.69-3.56-7.06-5.86-7.06c-2.74,0-4.66,1.54-5.48,3.08h-0.07l-0.17-2.74h-2.67
		c0.1,1.37,0.14,2.74,0.14,4.49V123.42z M477.65,106.83h-3.01v10.14c0,0.58-0.1,1.13-0.27,1.54c-0.55,1.37-1.95,2.78-3.97,2.78
		c-2.71,0-3.7-2.16-3.7-5.31v-9.15h-3.01v9.7c0,5.79,3.12,7.27,5.72,7.27c2.95,0,4.73-1.75,5.48-3.08h0.07l0.17,2.71h2.67
		c-0.1-1.3-0.14-2.81-0.14-4.56V106.83z M441.05,113.51c0.24-2.09,1.54-4.87,4.63-4.87c3.39,0,4.21,2.98,4.18,4.87H441.05z
		 M452.67,115.67c0.07-0.34,0.1-0.79,0.1-1.41c0-3.05-1.41-7.78-6.85-7.78c-4.83,0-7.78,3.91-7.78,8.91s3.05,8.39,8.16,8.39
		c2.64,0,4.49-0.58,5.55-1.06l-0.55-2.16c-1.1,0.48-2.43,0.86-4.59,0.86c-3.05,0-5.62-1.68-5.69-5.75H452.67z M420.32,123.42h3.02
		v-10.01c0-0.55,0.04-0.99,0.21-1.44c0.58-1.61,2.09-2.98,4.04-2.98c2.84,0,3.84,2.23,3.84,4.9v9.53h3.01v-9.87
		c0-5.69-3.56-7.06-5.79-7.06c-1.13,0-2.19,0.31-3.08,0.82c-0.93,0.51-1.68,1.3-2.16,2.16h-0.07V99.09h-3.02V123.42z M409.67,103.75
		v3.08h-2.57v2.29h2.57v9.05c0,1.95,0.34,3.43,1.16,4.35c0.72,0.79,1.85,1.27,3.25,1.27c1.17,0,2.09-0.21,2.67-0.41l-0.14-2.29
		c-0.45,0.14-0.93,0.2-1.75,0.2c-1.68,0-2.26-1.16-2.26-3.22v-8.94h4.32v-2.29h-4.32v-3.98L409.67,103.75z"/>
	<path class="st0" d="M720.63,65.71c-1.61,0.99-3.44,1.49-5.49,1.49l-9.02-8.46c-1.49,1.06-2.62,2.54-3.4,4.46
		c-0.78,1.92-1.13,3.88-1.07,5.86c1.24,0.87,3.12,1.66,5.63,2.37c2.51,0.71,5.35,1.07,8.51,1.07c2.98,0,5.73-0.31,8.28-0.93
		c2.54-0.62,4.73-1.55,6.56-2.79c1.83-1.24,3.27-2.76,4.33-4.56c1.05-1.8,1.58-3.88,1.58-6.23c0-2.11-0.39-3.97-1.16-5.58
		c-0.78-1.61-1.72-3.05-2.84-4.32c-1.12-1.27-2.36-2.43-3.72-3.49c-1.37-1.05-2.6-2.09-3.72-3.12c-1.12-1.02-2.06-2.09-2.84-3.21
		c-0.78-1.12-1.16-2.36-1.16-3.72c0-2.05,0.67-3.47,2-4.28c1.33-0.8,2.99-1.21,4.98-1.21l7.44,8.28c0.93-0.31,1.72-0.91,2.37-1.81
		c0.65-0.9,1.18-1.89,1.58-2.98c0.4-1.08,0.68-2.17,0.84-3.26c0.16-1.08,0.2-1.97,0.14-2.65c-0.93-0.56-1.97-1.01-3.12-1.35
		c-1.15-0.34-2.34-0.64-3.58-0.88c-1.24-0.25-2.46-0.42-3.67-0.51c-1.21-0.09-2.31-0.14-3.3-0.14c-5.83,0-10.43,1.16-13.81,3.49
		c-3.38,2.33-5.07,5.85-5.07,10.56c0,2.11,0.37,3.95,1.12,5.53c0.74,1.58,1.67,3.02,2.79,4.32c1.12,1.3,2.34,2.46,3.67,3.49
		c1.33,1.02,2.56,2.06,3.67,3.12c1.12,1.06,2.04,2.13,2.79,3.21c0.75,1.08,1.12,2.31,1.12,3.67
		C723.05,63.2,722.24,64.72,720.63,65.71 M683.43,30.8c0.87,1.16,1.3,2.64,1.3,4.46c0,1.52-0.19,2.95-0.56,4.28
		c-0.37,1.33-0.93,2.5-1.67,3.5c-0.74,1-1.67,1.81-2.79,2.41c-1.12,0.61-2.42,0.91-3.91,0.91c-1.24,0-2.4-0.44-3.49-1.32
		c-1.09-0.88-1.63-2.38-1.63-4.51c0-1.58,0.19-3.07,0.56-4.46c0.37-1.4,0.93-2.61,1.67-3.64c0.74-1.03,1.67-1.85,2.79-2.46
		c1.12-0.61,2.42-0.91,3.91-0.91C681.29,29.07,682.56,29.64,683.43,30.8 M663.27,83.66c-1.94-1.43-2.9-3.38-2.9-5.86
		c0-1.8,0.44-3.6,1.31-5.4c0.88-1.8,2.19-3.35,3.95-4.65c2,0.5,4.1,0.93,6.32,1.3c2.22,0.37,4.26,0.85,6.13,1.44
		c1.87,0.59,3.42,1.33,4.64,2.23c1.22,0.9,1.83,2.09,1.83,3.58c0,1.61-0.39,3-1.17,4.18c-0.78,1.18-1.8,2.15-3.05,2.93
		c-1.25,0.77-2.67,1.36-4.27,1.77c-1.59,0.4-3.24,0.6-4.92,0.6C667.83,85.8,665.21,85.08,663.27,83.66 M671.11,25.02
		c-2.82,0.84-5.22,1.99-7.21,3.44c-1.99,1.46-3.5,3.21-4.56,5.25c-1.05,2.05-1.58,4.28-1.58,6.7c0,1.3,0.28,2.53,0.84,3.67
		c0.56,1.15,1.26,2.14,2.09,2.98c0.84,0.84,1.77,1.53,2.79,2.09c1.02,0.56,2,0.93,2.93,1.12c-1.06,0.5-2.11,1.13-3.16,1.91
		c-1.06,0.78-2.02,1.63-2.88,2.56c-0.87,0.93-1.58,1.89-2.14,2.88c-0.56,0.99-0.84,1.95-0.84,2.88c0,1.49,0.48,2.71,1.45,3.67
		c0.97,0.96,2.26,1.78,3.89,2.46c-4.29,1.43-7.83,3.24-10.63,5.44c-2.79,2.2-4.2,4.91-4.2,8.14c0,1.43,0.39,2.79,1.16,4.09
		c0.77,1.3,1.95,2.46,3.53,3.49c1.58,1.02,3.55,1.83,5.91,2.42c2.36,0.59,5.08,0.88,8.18,0.88c3.78,0,7.52-0.45,11.21-1.35
		c3.69-0.9,7.01-2.17,9.95-3.81c2.94-1.64,5.33-3.61,7.16-5.91c1.83-2.29,2.74-4.87,2.74-7.72c0-2.61-0.78-4.7-2.33-6.28
		c-1.55-1.58-3.47-2.84-5.77-3.77c-2.29-0.93-4.81-1.64-7.53-2.14c-2.73-0.5-5.24-0.93-7.53-1.3c-2.29-0.37-4.22-0.8-5.77-1.3
		c-1.55-0.5-2.33-1.21-2.33-2.14c0-0.5,0.14-0.94,0.42-1.35c0.28-0.4,0.62-0.76,1.02-1.07c0.4-0.31,0.8-0.61,1.21-0.88
		c0.4-0.28,0.76-0.54,1.07-0.79c0.8,0.19,1.54,0.29,2.18,0.33c0.65,0.03,1.5,0.04,2.56,0.04c3.53,0,6.71-0.45,9.53-1.35
		c2.82-0.9,5.24-2.09,7.25-3.58c2.01-1.49,3.55-3.24,4.6-5.26c1.05-2.01,1.58-4.14,1.58-6.37c0-0.99-0.11-1.89-0.32-2.7
		c-0.22-0.81-0.48-1.46-0.79-1.95l9.21,1.02c0.5-0.56,0.9-1.27,1.21-2.14c0.31-0.87,0.51-1.78,0.61-2.74c0.09-0.96,0.09-1.91,0-2.84
		c-0.09-0.93-0.3-1.67-0.61-2.23c-0.99,0.31-2.09,0.68-3.3,1.12c-1.21,0.44-2.42,0.92-3.63,1.44c-1.21,0.53-2.34,1.09-3.39,1.68
		c-1.06,0.59-1.89,1.16-2.51,1.72c-1.05-0.87-2.71-1.71-4.97-2.51c-2.26-0.81-5.16-1.21-8.7-1.21
		C677.14,23.76,673.93,24.18,671.11,25.02 M630.97,59.76c-0.31,1.37-0.62,2.79-0.93,4.28c-0.31,1.49-0.46,2.88-0.46,4.18
		c0,1.06,0.48,1.99,1.45,2.79c0.97,0.81,2.51,1.21,4.65,1.21c1.19,0,2.44-0.13,3.76-0.38c1.32-0.26,2.58-0.57,3.8-0.96
		c1.22-0.38,2.35-0.83,3.38-1.33c1.03-0.51,1.86-1.02,2.49-1.53v-3.24h-6.7l5.12-21.57c0.43-1.79,0.8-3.59,1.12-5.42
		c0.31-1.82,0.46-3.44,0.46-4.86c0-2.78-0.74-5-2.23-6.67c-1.49-1.67-3.53-2.5-6.14-2.5c-1.92,0-3.81,0.39-5.67,1.16
		c-1.86,0.78-3.63,1.81-5.3,3.12c-1.67,1.3-3.26,2.85-4.74,4.65c-1.49,1.8-2.79,3.72-3.91,5.77h-0.47l2.88-13.58l-1.86-1.12
		c-1.55,0-3.18,0.09-4.88,0.28c-1.71,0.19-3.36,0.43-4.98,0.74c-1.61,0.31-3.1,0.67-4.46,1.07c-1.37,0.4-2.48,0.82-3.35,1.26
		l-0.19,3.16l5.49,1.21l-8,39.9h12.83l5.58-26.6c0.61-1.36,1.43-2.85,2.44-4.46c1.01-1.61,2.11-3.08,3.31-4.42
		c1.19-1.33,2.42-2.45,3.68-3.35c1.26-0.9,2.47-1.35,3.63-1.35c1.16,0,1.98,0.39,2.44,1.16c0.46,0.78,0.69,1.69,0.69,2.74
		c0,1.61-0.17,3.16-0.51,4.65c-0.34,1.49-0.73,3.19-1.16,5.11L630.97,59.76z M585.78,14.09c1.42,1.18,3.22,1.77,5.39,1.77
		c2.35,0,4.23-0.59,5.63-1.77c1.4-1.18,2.09-2.76,2.09-4.74c0-2.11-0.7-3.75-2.09-4.93c-1.39-1.18-3.27-1.77-5.63-1.77
		c-2.17,0-3.97,0.59-5.39,1.77c-1.43,1.18-2.14,2.82-2.14,4.93C583.64,11.33,584.35,12.91,585.78,14.09 M581.68,31.58l-6.32,28.83
		c-0.31,1.43-0.56,2.73-0.74,3.91c-0.19,1.18-0.28,2.39-0.28,3.63c0,1.05,0.45,2.03,1.35,2.93c0.9,0.9,2.53,1.35,4.88,1.35
		c1.12,0,2.29-0.11,3.53-0.33c1.24-0.22,2.46-0.52,3.67-0.91c1.21-0.38,2.36-0.83,3.44-1.33c1.08-0.51,2.03-1.05,2.84-1.62v-3.24
		h-6.51l8.37-39.9l-1.67-1.11c-1.3,0-2.81,0.11-4.51,0.32c-1.71,0.22-3.43,0.48-5.16,0.79c-1.74,0.31-3.38,0.67-4.93,1.07
		c-1.55,0.4-2.79,0.79-3.72,1.16v3.16L581.68,31.58z M549.6,61.52h-0.19l-0.56-6.23l-3.54-26.79c-0.18-1.36-0.62-2.49-1.3-3.4
		c-0.68-0.9-1.86-1.35-3.53-1.35c-1.3,0-2.62,0.12-3.95,0.37c-1.33,0.25-2.64,0.56-3.91,0.93c-1.27,0.37-2.43,0.78-3.49,1.21
		c-1.05,0.43-1.95,0.87-2.7,1.3v3.16l5.95,0.74l6.88,41.02l8.56-1.12c2.66-3.35,5.27-6.93,7.81-10.74c2.54-3.81,4.9-7.73,7.07-11.77
		c2.17-4.03,4.11-8.08,5.81-12.14c1.7-4.06,3.02-8.01,3.95-11.86c-0.68-0.37-1.61-0.65-2.79-0.84c-1.18-0.19-2.4-0.28-3.67-0.28
		c-1.27,0-2.54,0.09-3.81,0.28c-1.27,0.19-2.34,0.46-3.21,0.84c0.12,0.37,0.28,1.04,0.47,2c0.18,0.96,0.35,2,0.51,3.11
		c0.15,1.12,0.31,2.22,0.46,3.3c0.16,1.09,0.23,1.97,0.23,2.65c-0.99,3.47-2.17,6.77-3.53,9.91c-1.36,3.13-2.88,6.22-4.56,9.25
		L549.6,61.52z M505.24,56.59c-0.62,2.79-1.09,5.1-1.39,6.93c-0.31,1.83-0.47,3.3-0.47,4.42c0,0.99,0.47,1.95,1.4,2.88
		c0.93,0.93,2.48,1.39,4.65,1.39c1.12,0,2.31-0.13,3.58-0.38c1.27-0.26,2.51-0.57,3.72-0.96c1.21-0.38,2.32-0.83,3.35-1.33
		c1.02-0.51,1.84-1.02,2.46-1.53v-3.24h-6.51l7.81-40.74c-2.6,0-4.84,0.16-6.7,0.46c-1.86,0.31-3.6,0.78-5.21,1.4
		c-1.3-0.56-2.53-1.02-3.67-1.4c-1.15-0.37-2.53-0.56-4.14-0.56c-4.28,0-8.15,0.88-11.63,2.65c-3.47,1.77-6.43,4.22-8.88,7.35
		c-2.45,3.13-4.34,6.79-5.67,10.97c-1.33,4.19-2,8.7-2,13.53c0,4.65,0.96,8.15,2.88,10.51c1.92,2.36,4.49,3.53,7.72,3.53
		c2.17,0,4.19-0.46,6.04-1.4c1.86-0.93,3.56-2.14,5.12-3.63c1.55-1.49,2.93-3.18,4.14-5.07c1.21-1.89,2.22-3.83,3.02-5.81H505.24z
		 M490.17,63.11c-0.68-1.3-1.02-3.38-1.02-6.23c0-3.29,0.36-6.57,1.07-9.86c0.71-3.29,1.75-6.25,3.12-8.88
		c1.36-2.63,3.04-4.77,5.02-6.42c1.98-1.64,4.22-2.47,6.7-2.47c1.05,0,1.91,0.11,2.56,0.33c0.65,0.22,1.35,0.57,2.09,1.07
		l-3.44,18.41c-0.68,1.61-1.5,3.36-2.47,5.26c-0.96,1.89-2.01,3.63-3.16,5.21c-1.15,1.58-2.36,2.9-3.63,3.95
		c-1.27,1.05-2.5,1.58-3.67,1.58C491.91,65.06,490.85,64.41,490.17,63.11 M433.72,49.99h-3.81c-0.56,1.12-1.16,2.4-1.81,3.86
		c-0.65,1.46-1.29,3.01-1.91,4.65c-0.62,1.64-1.21,3.29-1.77,4.93c-0.56,1.64-1.02,3.21-1.4,4.7c0.62,0.56,1.61,1.09,2.98,1.58
		c1.36,0.5,2.95,0.96,4.74,1.4c1.8,0.43,3.7,0.77,5.72,1.02c2.01,0.25,4.01,0.37,6,0.37c9.05,0,16.01-1.75,20.88-5.25
		c4.87-3.5,7.3-8.54,7.3-15.11c0-3.04-0.6-5.64-1.81-7.81c-1.21-2.17-2.7-4.08-4.46-5.72c-1.77-1.64-3.71-3.13-5.81-4.46
		c-2.11-1.33-4.05-2.66-5.81-4c-1.77-1.33-3.25-2.81-4.46-4.42c-1.21-1.61-1.81-3.5-1.81-5.67c0-1.55,0.31-2.88,0.93-4
		c0.62-1.12,1.44-2.03,2.46-2.74c1.02-0.71,2.23-1.24,3.63-1.58c1.39-0.34,2.9-0.51,4.51-0.51c1.55,0,3.05,0.12,4.51,0.37
		c1.46,0.25,2.62,0.62,3.49,1.12l1.58,12.74h3.81c0.43-0.93,0.95-2.09,1.53-3.49c0.59-1.4,1.18-2.88,1.77-4.46
		c0.59-1.58,1.13-3.18,1.63-4.79c0.5-1.61,0.9-3.04,1.21-4.28c-2.36-1.12-5.1-1.94-8.23-2.46c-3.13-0.53-6.59-0.79-10.37-0.79
		c-3.78,0-7.25,0.42-10.42,1.26c-3.16,0.84-5.89,2.09-8.18,3.77c-2.29,1.67-4.09,3.75-5.39,6.23c-1.3,2.48-1.95,5.36-1.95,8.65
		c0,3.16,0.59,5.83,1.77,8c1.18,2.17,2.63,4.06,4.37,5.67c1.74,1.61,3.64,3.05,5.72,4.32c2.08,1.27,3.98,2.56,5.72,3.86
		c1.74,1.3,3.19,2.74,4.37,4.32c1.18,1.58,1.77,3.49,1.77,5.72c0,1.74-0.34,3.21-1.02,4.42c-0.68,1.21-1.63,2.18-2.84,2.93
		c-1.21,0.74-2.65,1.29-4.32,1.63c-1.67,0.34-3.47,0.51-5.39,0.51c-1.8,0-3.5-0.31-5.12-0.93c-1.61-0.62-2.73-1.24-3.35-1.86
		L433.72,49.99z"/>
	<path class="st1" d="M364.88,23.51l14.1,43.86c0.39,1.18,0.47,1.86,0.47,2.45s-0.24,1.37-0.63,2.15c-1.1,2.35-3.13,4.8-4.93,5.97
		c-1.8,1.27-3.68,2.15-5.17,2.54l2.59,12.53c2.98-0.39,7.36-2.06,11.43-6.56c4.31-4.8,7.99-12.34,13.47-31.43l8.93-31.52h-12.69
		l-4.78,23.5c-0.55,2.84-1.17,6.36-1.64,9.01h-0.31c-0.47-2.54-1.25-6.17-1.88-8.91l-5.72-23.59H364.88z M341.7,14.6v8.91h-5.09
		v10.96h5.09v19.58c0,6.75,1.1,11.36,3.29,14.19c1.96,2.45,5.17,4.11,9.01,4.11c3.29,0,6.19-0.59,7.68-1.27l-0.08-11.26
		c-1.1,0.29-1.88,0.39-3.52,0.39c-3.52,0-4.7-2.64-4.7-8.42V34.47h8.54V23.51h-8.54V10.59L341.7,14.6z M324.63,2.76
		c-3.84,0-6.34,3.23-6.34,7.44c0,4.11,2.43,7.44,6.19,7.44c4,0,6.42-3.33,6.42-7.44C330.82,5.99,328.47,2.76,324.63,2.76
		 M330.5,23.51h-11.9v47.87h11.9V23.51z M272.7,71.38h11.9V43.77c0-1.37,0.08-2.74,0.39-3.72c0.86-2.74,2.82-5.58,6.11-5.58
		c4.31,0,6.03,4.21,6.03,10.38v26.53h11.9V43.09c0-14.1-5.87-20.66-13.71-20.66c-6.42,0-10.26,4.6-11.83,7.73h-0.23l-0.55-6.66
		h-10.34c0.16,4.31,0.31,9.3,0.31,15.27V71.38z M263.15,23.51h-11.9V52c0,1.27-0.16,2.35-0.47,3.23c-0.71,2.35-2.66,5.19-5.95,5.19
		c-4.23,0-6.03-4.21-6.03-11.16V23.51h-11.9v28.1c0,14.78,5.64,20.85,13.47,20.85c6.89,0,10.5-4.89,11.98-7.83h0.23l0.55,6.75h10.34
		c-0.16-4.01-0.31-9.1-0.31-15.37V23.51z M159.69,71.38h11.59v-27.9c0-1.27,0.08-2.64,0.47-3.82c0.71-2.35,2.51-5.29,5.56-5.29
		c3.84,0,5.56,4.11,5.56,10.08v26.92h11.59v-28c0-1.27,0.16-2.74,0.39-3.82c0.86-2.84,2.74-5.19,5.56-5.19
		c3.84,0,5.64,4.01,5.64,10.96v26.04h11.59V43.19c0-14.39-5.56-20.85-12.92-20.85c-2.82,0-5.17,0.88-7.28,2.35
		c-1.88,1.37-3.52,3.33-5.01,5.87h-0.16c-1.64-4.99-5.48-8.22-10.5-8.22c-6.5,0-9.95,4.5-11.59,7.64h-0.23l-0.47-6.46h-10.1
		c0.16,4.31,0.31,9.3,0.31,15.27V71.38z M92.34,71.38h11.59v-27.9c0-1.27,0.08-2.64,0.47-3.82c0.71-2.35,2.51-5.29,5.56-5.29
		c3.84,0,5.56,4.11,5.56,10.08v26.92h11.59v-28c0-1.27,0.16-2.74,0.39-3.82c0.86-2.84,2.74-5.19,5.56-5.19
		c3.84,0,5.64,4.01,5.64,10.96v26.04h11.59V43.19c0-14.39-5.56-20.85-12.92-20.85c-2.82,0-5.17,0.88-7.28,2.35
		c-1.88,1.37-3.52,3.33-5.01,5.87h-0.16c-1.64-4.99-5.48-8.22-10.49-8.22c-6.5,0-9.95,4.5-11.59,7.64h-0.23l-0.47-6.46h-10.1
		c0.16,4.31,0.31,9.3,0.31,15.27V71.38z M65.08,33.01c5.4,0,7.6,7.25,7.6,14.29c0,8.71-2.9,14.49-7.6,14.49
		c-5.09,0-7.83-6.17-7.83-14.39C57.25,40.35,59.44,33.01,65.08,33.01 M65.47,22.33c-12.38,0-20.52,9.89-20.52,25.45
		c0,15.47,8.61,24.67,19.81,24.67c10.26,0,20.21-8.03,20.21-25.55C84.98,32.42,77.14,22.33,65.47,22.33 M39.4,57.87
		c-2.43,1.27-6.34,2.15-10.02,2.15c-10.57,0-16.84-8.32-16.84-21.54c0-14.68,7.36-21.83,16.76-21.83c4.31,0,7.68,1.17,10.02,2.45
		l2.51-11.75c-2.11-1.47-6.81-2.94-13-2.94C12.84,4.42,0,16.85,0,39.37c0,18.8,9.4,33.09,27.65,33.09c6.34,0,11.36-1.57,13.47-2.84
		L39.4,57.87z"/>
	<rect y="2.65" class="st2" width="740.45" height="121.14"/>
</g>
</svg>
